<svg width="139" height="171" viewBox="0 0 139 171" fill="none" xmlns="http://www.w3.org/2000/svg">
<path d="M44.6384 66.0783C44.6016 66.0783 44.5279 66.0783 44.4911 66.0414C44.3438 66.0046 44.1965 65.8571 44.1228 65.7097C40.8817 57.4177 36.5726 52.2951 31.711 46.9145C31.6373 46.8408 31.5637 46.6934 31.5637 46.5828C31.4163 44.3716 31.5637 42.1972 31.8583 40.1703C31.8583 40.0966 31.8583 40.0597 31.8951 39.986C32.0424 38.7699 32.2634 37.5537 32.5212 36.3744C32.5581 36.227 32.6317 36.1164 32.7422 36.0427L44.1965 27.935C44.4175 27.7875 44.7489 27.8244 44.9331 28.0087C45.7065 28.8931 46.48 29.7776 47.2534 30.6621C53.0726 37.3326 59.1128 44.2242 62.8695 52.5531C62.98 52.811 62.9063 53.069 62.6853 53.2164L44.9331 66.0046C44.8594 66.0414 44.7489 66.0783 44.6384 66.0783ZM32.8527 46.6196C37.5302 51.7791 41.6552 56.8281 44.8594 64.6778L61.6541 52.5899C57.971 44.5927 52.0782 37.8854 46.4063 31.3992C45.7433 30.6253 45.0804 29.8882 44.4175 29.1143L33.8103 36.6324L37.6407 41.755C37.8248 41.9761 37.788 42.3078 37.567 42.4921L32.8527 46.6196ZM32.9632 40.1703C32.7422 41.9024 32.6317 43.6345 32.6317 45.4035L36.4621 42.013L33.3683 37.8485C33.1842 38.6225 33.0737 39.3595 32.9632 40.1703Z" fill="#1C1B2F"/>
<path d="M76.5702 50.6735C79.5534 45.7351 84.1204 37.959 84.1204 37.959C84.1204 37.959 94.2488 46.5459 101.062 51.5948C103.825 53.6586 108.244 56.7543 108.244 56.7543L111.927 57.6756L113.032 59.5183L112.848 61.9138L111.743 63.3879L108.428 64.3092L107.692 66.7047L106.955 69.1002L106.771 70.2058L108.244 69.653L109.349 70.0215V72.0485V74.0754V75.5495L108.613 77.7608L107.324 80.8933L106.034 82.736L105.482 83.8416L103.825 86.0528L103.088 87.1584C103.088 87.1584 105.924 88.4851 107.876 88.4483C109.57 88.4114 112.48 89.0011 112.111 87.3427C111.007 82.3674 111.007 77.7608 111.007 77.7608C111.007 77.7608 111.007 88.4851 117.268 87.3427C119.735 86.9004 122.755 86.3108 122.424 83.8416C120.398 68.3631 119.293 56.9386 113.032 42.0129C109.533 33.7209 101.173 26.645 92.2231 27.6401C88.6137 28.0455 84.1204 30.5883 84.1204 30.5883C84.1204 30.5883 78.559 30.1092 75.4653 31.5097C61.1014 37.959 70.53 55.2802 64.232 70.0215C61.4329 76.5814 54.6193 82.2569 59.8124 87.1584C63.2376 90.3646 68.0992 90.1067 68.0992 87.3427C68.0992 83.7679 71.0456 78.6821 71.0456 78.6821C71.0456 78.6821 66.9943 86.0528 69.9407 88.264C71.5981 89.517 72.261 88.6694 74.3604 88.4483C76.1651 88.264 78.78 87.1584 78.78 87.1584L77.6751 85.5L74.7287 81.2618L72.8872 77.7608L72.3347 75.7338L71.9664 72.9698L72.3347 70.0215H73.4396L74.7287 70.7586H75.4653L73.8079 65.2306L73.4396 64.125H72.3347L71.0456 63.7564L70.309 63.3879L69.02 62.8351L68.6517 61.9138L68.2834 60.6239L69.02 58.4127L70.309 57.4914L71.4139 56.7543H72.8872C72.8872 56.7543 75.1338 53.0689 76.5702 50.6735Z" fill="#1C1B2F"/>
<path d="M67.8411 167.462L59.8489 156.59C59.4438 156.037 59.3333 155.374 59.5543 154.748C59.7753 154.121 60.2541 153.642 60.8802 153.458L66.6257 151.689L66.9572 152.757L61.2116 154.526C60.917 154.6 60.696 154.821 60.6224 155.116C60.5119 155.411 60.5855 155.706 60.7697 155.964L68.7619 166.835L67.8411 167.462Z" fill="#1C1B2F"/>
<path d="M71.4507 170.042C70.6036 170.042 69.7933 169.784 69.0935 169.231C68.2464 168.568 67.694 167.573 67.5835 166.504L64.7107 133.741C64.6002 132.673 65.3736 131.714 66.4417 131.567L127.322 123.164C127.912 123.091 128.538 123.275 128.98 123.68C129.422 124.086 129.679 124.675 129.643 125.302L127.875 156.848C127.764 158.654 126.475 160.128 124.707 160.423L72.1504 170.005C71.8926 170.005 71.6716 170.042 71.4507 170.042ZM127.506 124.27L66.6259 132.673C66.1471 132.746 65.7788 133.188 65.8524 133.668L68.7252 166.43C68.7989 167.204 69.1672 167.904 69.7933 168.384C70.4194 168.863 71.1928 169.047 71.9663 168.899L124.523 159.318C125.775 159.096 126.733 158.028 126.77 156.738L128.538 125.191C128.538 124.933 128.464 124.638 128.243 124.454C128.059 124.307 127.764 124.196 127.506 124.27Z" fill="#1C1B2F"/>
<path d="M65.3739 141.186C65.0424 140.412 57.0502 122.243 60.3649 108.017C61.212 104.369 64.4163 100.61 69.904 96.8509C73.9185 94.0868 77.7489 92.3547 77.7857 92.3547L78.2277 93.3498C78.0803 93.4235 63.3114 100.131 61.433 108.275C59.7388 115.499 61.1752 123.901 62.6853 129.724C64.3058 136.026 66.3683 140.706 66.3683 140.743L65.3739 141.186ZM123.492 124.196L122.387 124.159C122.387 124.012 122.719 109.492 119.146 103.263C115.095 96.1506 103.383 92.6864 103.272 92.6496L103.567 91.5808C104.083 91.7282 115.795 95.1925 120.104 102.711C123.824 109.234 123.492 123.606 123.492 124.196Z" fill="#1C1B2F"/>
<path d="M90.7139 102.637C87.0308 102.637 84.8947 100.352 84.7842 100.241L85.5944 99.5044C85.6313 99.5412 87.5465 101.568 90.7875 101.531C94.0654 101.494 95.7964 99.5412 95.7964 99.5044L96.6435 100.241C96.5699 100.352 94.581 102.6 90.7875 102.637C90.7875 102.637 90.7507 102.637 90.7139 102.637Z" fill="#1C1B2F"/>
<path d="M67.5095 132.267L66.4414 131.972L78.8532 87.8587C77.6378 86.6057 72.2238 80.7828 71.5608 74.4809C71.2294 71.422 71.5608 69.8005 72.5552 69.3582C73.5497 68.9529 74.8019 69.7636 76.6066 72.0485L75.7595 72.7488C73.697 70.169 73.034 70.3901 72.9972 70.3901C72.9604 70.3901 72.2974 70.7218 72.6657 74.3703C73.3655 80.8934 79.8108 87.2322 79.8477 87.3059C79.995 87.4533 80.0318 87.6744 79.995 87.8587L67.5095 132.267ZM83.0151 129.577L81.9102 129.503C81.947 129.208 84.3041 100.794 85.7773 88.5589C86.072 86.1634 84.5988 84.1733 84.5988 84.1733L85.4827 83.51C85.5564 83.6205 87.2137 85.8686 86.8822 88.7063C85.409 100.905 83.0151 129.319 83.0151 129.577Z" fill="#1C1B2F"/>
<path d="M98.4474 127.366C98.4105 127.108 96.0902 100.868 94.617 88.6694C94.2119 85.1315 95.9429 83.3256 96.0166 83.2519L96.79 84.0259C96.7163 84.0996 95.3536 85.5737 95.6851 88.5588C97.1583 100.757 99.4786 126.997 99.5155 127.255L98.4474 127.366ZM113.032 125.633L101.467 87.8586C101.394 87.6744 101.467 87.4532 101.615 87.3058C101.688 87.2321 108.097 80.9302 108.797 74.3703C109.202 70.4638 108.613 70.169 108.576 70.1321C108.576 70.1321 107.986 69.9479 106.034 72.3802L105.187 71.68C106.918 69.5425 108.097 68.7317 108.981 69.1002C109.975 69.5056 110.233 71.1272 109.865 74.4808C109.202 80.7459 103.825 86.5688 102.572 87.8586L114.027 125.302L113.032 125.633Z" fill="#1C1B2F"/>
<path d="M76.7541 54.1746C76.6068 54.1746 76.4594 54.1378 76.3121 54.0272C75.9806 53.7693 75.907 53.327 76.1648 52.9953C76.2753 52.8479 77.2329 51.558 78.7061 51.4106C80.3266 51.2264 81.4684 51.8529 81.542 51.8529C81.9103 52.0371 82.0208 52.4794 81.8367 52.8479C81.6525 53.2164 81.2106 53.327 80.8423 53.1427C80.8423 53.1427 80.032 52.7374 78.8902 52.8479C78.1905 52.9216 77.5644 53.6218 77.3802 53.843C77.196 54.0641 76.9751 54.1746 76.7541 54.1746Z" fill="#1C1B2F"/>
<path d="M100.288 54.0271C100.068 54.0271 99.8465 53.9166 99.6992 53.7323C99.5151 53.4743 98.889 52.811 98.1892 52.7373C97.0106 52.6267 96.2372 53.0321 96.2372 53.0321C95.8689 53.2164 95.4269 53.1058 95.2428 52.7373C95.0586 52.3687 95.1691 51.9265 95.5374 51.7422C95.5742 51.7054 96.716 51.1157 98.3733 51.3C99.8465 51.4474 100.804 52.7373 100.915 52.8847C101.172 53.2164 101.099 53.6586 100.767 53.9166C100.62 53.9903 100.436 54.0271 100.288 54.0271Z" fill="#1C1B2F"/>
<path d="M94.0275 58.597C93.917 58.597 93.8065 58.5602 93.7329 58.5233C93.4751 58.3759 93.4014 58.0074 93.5487 57.7494C93.5855 57.6757 94.4695 56.349 96.3478 56.2015C98.263 56.0541 99.6994 57.602 99.7362 57.6757C99.9572 57.8968 99.9204 58.2653 99.6994 58.4496C99.4784 58.6707 99.1101 58.6339 98.9259 58.4127C98.9259 58.4127 97.7842 57.1966 96.4215 57.3071C95.0588 57.4177 94.4695 58.339 94.4326 58.339C94.3958 58.5233 94.2117 58.597 94.0275 58.597Z" fill="#1C1B2F"/>
<path d="M83.5685 58.9654C83.3844 58.9654 83.2002 58.8917 83.0897 58.7075C83.0529 58.6706 82.4636 57.7861 81.1009 57.6756C79.7382 57.565 78.6333 58.7812 78.5964 58.7812C78.3754 59.0023 78.044 59.0391 77.823 58.818C77.602 58.5969 77.5652 58.2652 77.7862 58.0441C77.8598 57.9704 79.2594 56.4225 81.1746 56.57C83.0897 56.7174 83.9368 58.0441 83.9737 58.1178C84.121 58.3758 84.0473 58.7075 83.7895 58.8917C83.7527 58.9286 83.6422 58.9654 83.5685 58.9654Z" fill="#1C1B2F"/>
<path d="M89.6444 77.3921C89.5707 77.3921 89.4971 77.3921 89.4234 77.3921C86.2192 77.2816 84.9669 75.1809 84.9301 75.0704C84.7828 74.8124 84.8564 74.4807 85.1511 74.3333C85.4089 74.1859 85.7404 74.2596 85.8877 74.5176C85.9245 74.5913 86.9189 76.176 89.4602 76.2865C92.0384 76.3602 93.3643 74.5544 93.4011 74.4807C93.5852 74.2227 93.9167 74.1859 94.1745 74.3333C94.4323 74.5176 94.4692 74.8492 94.3219 75.1072C94.2482 75.2178 92.7013 77.3921 89.6444 77.3921Z" fill="#1C1B2F"/>
<path d="M88.6145 71.4221C88.0989 71.4221 87.5833 71.2378 87.1781 70.7218C85.8891 69.2109 87.3254 58.5971 87.8042 55.354C87.8411 55.0591 88.1357 54.838 88.4304 54.8749C88.725 54.9117 88.946 55.2066 88.9092 55.5014C87.9884 61.8402 87.3991 69.174 88.0621 69.9848C88.6513 70.685 89.6458 69.9111 89.6826 69.9111C89.9404 69.7268 90.2719 69.7637 90.456 70.0216C90.6402 70.2796 90.6034 70.6113 90.3455 70.7956C89.9404 71.1272 89.3143 71.4221 88.6145 71.4221Z" fill="#1C1B2F"/>
<path d="M89.792 85.6842C84.7462 85.6842 80.2161 81.962 76.6804 74.8861C74.5074 70.5006 73.292 66.0782 72.9605 64.7146C72.1134 64.7146 70.2719 64.5303 69.0565 63.3879C68.2831 62.6508 67.8779 61.6557 67.8779 60.4764C67.8779 57.1228 70.898 56.2383 72.4817 56.2383C72.7764 56.2383 73.0342 56.4963 73.0342 56.7911C73.0342 57.0859 72.7764 57.3439 72.4817 57.3439C72.3344 57.3439 68.9828 57.4176 68.9828 60.4764C68.9828 61.3978 69.2407 62.0611 69.8299 62.5771C71.0822 63.7564 73.3656 63.609 73.3656 63.609C73.6235 63.5721 73.8813 63.7564 73.9549 64.0512C73.9918 64.2723 78.5956 84.6154 89.792 84.6154C98.2998 84.6154 103.714 78.4609 107.839 64.0144C107.913 63.7564 108.133 63.609 108.391 63.609C108.539 63.609 112.111 63.7195 112.406 60.587C112.516 59.5551 112.295 58.7812 111.743 58.2284C110.601 57.0859 108.428 57.307 108.391 57.307C108.097 57.3439 107.802 57.1228 107.802 56.8279C107.802 56.5331 107.986 56.2383 108.281 56.2383C108.391 56.2383 111.006 55.9803 112.516 57.4544C113.29 58.2284 113.621 59.334 113.511 60.6976C113.216 63.7564 110.491 64.6409 108.76 64.6777C104.524 79.3823 98.8154 85.6842 89.792 85.6842Z" fill="#1C1B2F"/>
<path d="M109.496 62.0611C109.238 62.0611 109.018 61.9137 108.981 61.6557C108.907 61.3609 109.054 61.0661 109.349 60.9555C109.423 60.9187 110.012 60.7344 110.012 60.1447C110.049 59.5919 109.533 59.4814 109.496 59.4814C109.202 59.4077 109.018 59.1128 109.054 58.818C109.091 58.5232 109.423 58.3389 109.717 58.3758C110.233 58.4863 111.191 59.0023 111.117 60.1816C111.08 61.2872 110.159 61.84 109.644 62.0243C109.607 62.0611 109.533 62.0611 109.496 62.0611Z" fill="#1C1B2F"/>
<path d="M71.9663 62.0611C71.9295 62.0611 71.8558 62.0611 71.819 62.0242C71.3034 61.8768 70.3826 61.324 70.3458 60.1816C70.309 59.0023 71.2297 58.4863 71.7454 58.3758C72.04 58.302 72.3346 58.4863 72.4083 58.818C72.482 59.1128 72.2978 59.4076 72.0032 59.4814C71.8558 59.5182 71.4507 59.6656 71.4507 60.1447C71.4875 60.7712 72.1137 60.9555 72.1137 60.9555C72.4083 61.0292 72.5925 61.3609 72.482 61.6557C72.4451 61.9137 72.2241 62.0611 71.9663 62.0611Z" fill="#1C1B2F"/>
<path d="M96.79 58.2285C96.0903 58.2285 95.501 58.8182 95.501 59.5184V60.624C95.501 61.3242 96.0903 61.9139 96.79 61.9139C97.4898 61.9139 98.0791 61.3242 98.0791 60.624V59.5921C97.9686 59.6658 97.8581 59.7027 97.7108 59.7027C97.3057 59.7027 96.9742 59.371 96.9742 58.9656C96.9742 58.7076 97.1215 58.4865 97.3057 58.3391C97.1584 58.2654 96.9742 58.2285 96.79 58.2285Z" fill="#1C1B2F"/>
<path d="M80.9893 58.5969C80.2895 58.5969 79.7002 59.1866 79.7002 59.8868V60.9924C79.7002 61.6926 80.2895 62.2823 80.9893 62.2823C81.689 62.2823 82.2783 61.6926 82.2783 60.9924V59.8868C82.2783 59.7762 82.2783 59.6657 82.2415 59.5551C82.131 59.8499 81.8732 60.0711 81.5417 60.0711C81.1366 60.0711 80.8051 59.7394 80.8051 59.334C80.8051 59.0023 81.0261 58.7443 81.3207 58.6338C81.1734 58.5969 81.0997 58.5969 80.9893 58.5969Z" fill="#1C1B2F"/>
<path d="M67.5467 130.83H62.3905V129.724H67.5467V130.83ZM122.94 123.459H112.627V122.354H122.94V123.459ZM98.6316 123.459H83.347V122.354H98.6316V123.459ZM69.5724 123.459H60.7331V122.354H69.5724V123.459ZM122.571 116.088H110.601V114.983H122.571V116.088ZM97.8949 116.088H83.8994V114.983H97.8949V116.088ZM71.5981 116.088H60.1807V114.983H71.5981V116.088ZM121.466 108.718H108.207V107.612H121.466V108.718ZM97.1583 108.718H84.4519V107.612H97.1583V108.718ZM73.8079 108.718H60.7331V107.612H73.8079V108.718ZM118.152 101.347H105.998V100.241H118.152V101.347ZM96.6059 101.347H95.1327V100.241H96.6059V101.347ZM86.5144 101.347H85.2253V100.241H86.5144V101.347ZM75.8336 101.347H65.7052V100.241H75.8336V101.347Z" fill="#1C1B2F"/>
<path d="M95.1322 139.122C96.4212 138.2 99.3677 140.596 99.3677 140.596C99.3677 140.596 100.841 137.942 102.314 138.2C105.629 138.753 99.3677 145.939 99.3677 145.939C99.3677 145.939 92.775 140.817 95.1322 139.122Z" fill="#1C1B2F"/>
<path d="M1.17773 64.1618C0.993583 63.9038 0.625279 63.8669 0.404297 64.0512C0.146484 64.2355 0.109654 64.604 0.293806 64.8251L1.17773 64.1618ZM21.7291 74.8124L21.7659 74.2596L21.7291 74.8124ZM35.8719 65.7833L35.5773 66.2624L35.8719 65.7833ZM39.555 108.349L39.8496 107.87L39.555 108.349ZM0.73577 64.4934C0.293806 64.8251 0.293806 64.8251 0.293806 64.8251C0.293806 64.8251 0.293806 64.8251 0.330636 64.862C0.330636 64.8988 0.367467 64.8988 0.404297 64.9357C0.477958 65.0094 0.551618 65.12 0.662109 65.2674C0.883091 65.5253 1.25139 65.9307 1.73019 66.373C2.65095 67.2943 4.01367 68.5105 5.85519 69.8003C9.46456 72.3064 14.805 74.9598 21.7291 75.3652L21.8027 74.2596C15.1364 73.8542 10.017 71.3113 6.51814 68.879C4.78711 67.6628 3.46122 66.4835 2.54046 65.599C2.09849 65.1568 1.76702 64.7883 1.54604 64.5303C1.43555 64.4197 1.36189 64.3092 1.28823 64.2355C1.2514 64.1986 1.2514 64.1618 1.21456 64.1618C1.17773 64.1618 1.17773 64.1618 0.73577 64.4934ZM21.6922 75.3652C29.3161 75.8443 34.0304 74.1859 36.3507 71.9378C37.4925 70.8322 38.0818 69.5424 38.0449 68.3262C38.0081 67.11 37.3451 66.0044 36.2034 65.3042L35.6141 66.2624C36.4612 66.7784 36.9032 67.5523 36.94 68.3631C36.9768 69.2107 36.5717 70.2057 35.5773 71.1639C33.5884 73.0803 29.2425 74.7387 21.7659 74.2596L21.6922 75.3652ZM39.2971 108.828C44.1588 111.629 49.536 112.145 53.6242 111.961C55.6867 111.887 57.4545 111.592 58.7067 111.371C59.3329 111.26 59.8117 111.15 60.18 111.039C60.3641 111.002 60.4746 110.966 60.5851 110.929C60.6219 110.929 60.6588 110.892 60.6956 110.892H60.7324C60.7324 110.892 60.7324 110.892 60.5851 110.376C60.4378 109.86 60.4378 109.86 60.4378 109.86C60.4378 109.86 60.4378 109.86 60.4009 109.86C60.3641 109.86 60.3641 109.86 60.3273 109.897C60.2536 109.934 60.1063 109.971 59.959 110.007C59.6275 110.081 59.1487 110.192 58.5594 110.302C57.344 110.523 55.6498 110.781 53.661 110.892C49.6465 111.076 44.5271 110.56 39.9233 107.907L39.2971 108.828ZM36.1666 65.3042C35.0617 64.604 33.7726 64.6409 32.5572 65.1199C31.3418 65.599 30.1264 66.5941 29.0583 67.9208C26.8485 70.5743 25.007 74.665 24.2335 79.3454C22.6867 88.8167 25.5594 100.831 39.334 108.791L39.8864 107.833C26.5907 100.131 23.8652 88.5956 25.3384 79.5296C26.0751 74.9967 27.8797 71.0902 29.9422 68.621C30.9735 67.4049 32.0416 66.5572 33.036 66.1518C33.9936 65.7465 34.8775 65.7833 35.6509 66.2624L36.1666 65.3042Z" fill="#1C1B2F"/>
<path d="M115.684 77.0606C115.389 77.0974 115.168 77.3923 115.205 77.6871C115.242 77.9819 115.537 78.203 115.831 78.1662L115.684 77.0606ZM135.02 64.383L135.499 64.6778L135.02 64.383ZM131.595 53.6218L131.853 54.1009L131.595 53.6218ZM149.421 72.9698L149.605 73.4858L149.421 72.9698ZM164.153 53.7323C164.19 53.4375 164.005 53.1427 163.711 53.1058C163.416 53.069 163.121 53.2532 163.085 53.5481L164.153 53.7323ZM115.758 77.6134C115.831 78.1662 115.831 78.1662 115.831 78.1662C115.831 78.1662 115.831 78.1662 115.868 78.1662C115.905 78.1662 115.942 78.1662 115.979 78.1293C116.089 78.1293 116.2 78.0925 116.384 78.0556C116.752 77.9819 117.231 77.8713 117.857 77.6871C119.109 77.3185 120.877 76.7289 122.829 75.7707C126.807 73.8543 131.705 70.5007 135.462 64.6778L134.541 64.0882C130.932 69.6899 126.181 72.933 122.35 74.8125C120.435 75.7338 118.741 76.3235 117.526 76.6552C116.936 76.8394 116.457 76.95 116.126 77.0237C115.979 77.0606 115.831 77.0974 115.758 77.0974C115.721 77.0974 115.684 77.0974 115.647 77.0974C115.647 77.0974 115.647 77.0974 115.61 77.0974C115.684 77.0606 115.684 77.0606 115.758 77.6134ZM135.499 64.6778C137.856 61.0293 137.93 57.6388 136.825 55.3907C136.272 54.2851 135.425 53.4375 134.467 52.9953C133.473 52.553 132.368 52.5899 131.337 53.1427L131.889 54.1009C132.589 53.6955 133.326 53.6955 134.026 53.9903C134.725 54.2851 135.388 54.9485 135.83 55.8698C136.714 57.7125 136.788 60.6608 134.578 64.0882L135.499 64.6778ZM149.642 73.4858C155.645 71.164 159.291 66.1888 161.39 61.8401C162.459 59.6657 163.158 57.6388 163.563 56.1647C163.784 55.4276 163.932 54.8011 164.005 54.3957C164.042 54.1746 164.079 54.0272 164.116 53.9166C164.116 53.8429 164.153 53.806 164.153 53.7692V53.7323C164.153 53.7323 164.153 53.7323 163.6 53.6218C163.048 53.5112 163.048 53.5112 163.048 53.5112C163.048 53.5112 163.048 53.5112 163.048 53.5481C163.048 53.5849 163.048 53.6218 163.011 53.6586C162.974 53.7692 162.974 53.9166 162.901 54.1377C162.827 54.5431 162.68 55.1328 162.459 55.833C162.053 57.2703 161.39 59.2235 160.359 61.3241C158.297 65.5254 154.835 70.2427 149.2 72.417L149.642 73.4858ZM131.3 53.1427C129.127 54.3588 128.243 56.7543 128.28 59.3709C128.317 61.9875 129.311 64.9726 131.079 67.5892C134.578 72.8224 141.244 76.7657 149.642 73.4858L149.236 72.4539C141.428 75.4759 135.315 71.8642 132 66.9627C130.342 64.4935 129.422 61.7295 129.385 59.3341C129.348 56.9386 130.158 55.0591 131.853 54.1009L131.3 53.1427Z" fill="#1C1B2F"/>
<path d="M39.5561 47.9095C39.3719 47.9095 39.2246 47.8358 39.1141 47.6884C38.93 47.4305 38.9668 47.0988 39.2246 46.9145L48.4322 40.0966C48.69 39.9123 49.0215 39.9492 49.2056 40.2072C49.3898 40.4651 49.353 40.7968 49.0951 40.9811L39.8876 47.799C39.8139 47.8727 39.6666 47.9095 39.5561 47.9095Z" fill="#1C1B2F"/>
<path d="M41.9506 50.8578C41.7665 50.8578 41.6191 50.7841 41.5086 50.6367C41.3245 50.3787 41.3613 50.047 41.6191 49.8627L50.6426 43.0449C50.9004 42.8606 51.2319 42.8974 51.416 43.1554C51.6002 43.4134 51.5634 43.7451 51.3055 43.9293L42.2821 50.7472C42.2084 50.8209 42.0611 50.8578 41.9506 50.8578Z" fill="#1C1B2F"/>
<path d="M43.6078 54.1746C43.4237 54.1746 43.2764 54.1009 43.1659 53.9534C42.9817 53.6955 43.0186 53.3638 43.2764 53.1795L52.6681 45.9931C52.9259 45.8088 53.2574 45.8457 53.4415 46.1037C53.6257 46.3616 53.5889 46.6933 53.3311 46.8776L43.9393 54.064C43.8657 54.1377 43.7183 54.1746 43.6078 54.1746Z" fill="#1C1B2F"/>
<path d="M131.779 46.8038C131.705 46.8038 131.595 46.767 131.521 46.7301C131.374 46.6564 131.263 46.509 131.227 46.3616C129.422 37.6642 126.07 31.8782 122.166 25.7236C122.093 25.6131 122.056 25.5025 122.093 25.3551C122.203 24.3969 122.387 23.4756 122.571 22.5911C122.829 21.3381 123.161 20.1219 123.529 18.9057C123.897 17.7633 124.302 16.584 124.744 15.4415C124.781 15.2941 124.892 15.2204 125.002 15.1467L137.745 9.10273C138.003 8.99217 138.298 9.06588 138.445 9.32385C139.035 10.3189 139.661 11.3508 140.287 12.3458C144.891 19.9008 149.679 27.7137 151.962 36.5585C152.036 36.8165 151.888 37.0745 151.667 37.1851L132 46.767C131.963 46.767 131.889 46.8038 131.779 46.8038ZM123.418 25.6131C127.138 31.5096 130.379 37.1482 132.184 45.4402L150.783 36.3743C148.5 27.8611 143.859 20.2693 139.366 12.8986C138.85 12.051 138.298 11.1665 137.782 10.3189L126.033 15.9206L128.943 21.5961C129.09 21.854 128.98 22.1857 128.722 22.3331L123.418 25.6131ZM123.676 22.8491C123.566 23.3282 123.492 23.8073 123.382 24.3232L127.728 21.6698L125.37 17.0631C124.708 18.9795 124.118 20.859 123.676 22.8491Z" fill="#1C1B2F"/>
<path d="M129.901 28.0086C129.717 28.0086 129.496 27.898 129.422 27.7138C129.275 27.4558 129.386 27.1241 129.68 26.9767L139.919 21.8172C140.177 21.6698 140.508 21.7804 140.656 22.0752C140.803 22.3332 140.692 22.6648 140.398 22.8123L130.159 27.9717C130.049 28.0086 129.975 28.0086 129.901 28.0086Z" fill="#1C1B2F"/>
<path d="M131.742 31.3255C131.558 31.3255 131.337 31.2149 131.263 31.0307C131.116 30.7727 131.226 30.441 131.484 30.2936L141.539 25.0973C141.797 24.9499 142.128 25.0604 142.276 25.3184C142.423 25.5764 142.312 25.9081 142.055 26.0555L132 31.2518C131.926 31.3255 131.853 31.3255 131.742 31.3255Z" fill="#1C1B2F"/>
<path d="M132.81 34.8633C132.626 34.8633 132.405 34.7527 132.332 34.5684C132.184 34.3105 132.295 33.9788 132.553 33.8314L143.012 28.3402C143.27 28.1928 143.602 28.3033 143.749 28.5613C143.896 28.8193 143.786 29.151 143.528 29.2984L133.068 34.7895C132.995 34.8633 132.921 34.8633 132.81 34.8633Z" fill="#1C1B2F"/>
<path d="M50.3838 18.4636C50.3101 18.4636 50.2364 18.4267 50.126 18.3899L39.8503 13.3041C39.5925 13.1567 39.482 12.825 39.5925 12.567C39.703 12.309 40.0713 12.1985 40.3291 12.309L50.6047 17.3948C50.8626 17.5422 50.9731 17.8739 50.8626 18.1319C50.7889 18.353 50.5679 18.4636 50.3838 18.4636Z" fill="#1C1B2F"/>
<path d="M48.763 21.7803C48.6894 21.7803 48.6157 21.7803 48.5421 21.7434L38.3769 16.8419C38.1191 16.6945 37.9718 16.3628 38.1191 16.1049C38.2664 15.8469 38.5979 15.6995 38.8557 15.8469L49.0209 20.7484C49.2787 20.8958 49.426 21.2275 49.2787 21.4855C49.1682 21.6329 48.984 21.7803 48.763 21.7803Z" fill="#1C1B2F"/>
<path d="M47.0689 24.9131C46.9952 24.9131 46.9215 24.9131 46.811 24.8394L36.5722 19.8273C36.3144 19.6799 36.1671 19.3482 36.3144 19.0902C36.4617 18.8322 36.7932 18.6848 37.051 18.8322L47.3267 23.8443C47.5845 23.9917 47.7318 24.3234 47.5845 24.5814C47.474 24.8025 47.2898 24.9131 47.0689 24.9131Z" fill="#1C1B2F"/>
<path d="M36.7564 34.2738L24.6024 28.1192C24.4551 28.0455 24.3446 27.8981 24.3078 27.7507C24.2709 27.6033 24.3078 27.419 24.4182 27.2716C32.9997 17.2475 35.983 10.7981 38.8557 1.65845C38.8926 1.51103 39.0031 1.36362 39.1504 1.32676C39.2977 1.25306 39.4819 1.25306 39.5924 1.32676L58.1917 10.1716C58.4127 10.2822 58.56 10.5401 58.4863 10.7981C56.4607 18.5742 52.9986 25.7606 48.1738 32.1731L47.2899 31.5097C51.9305 25.3184 55.2821 18.4268 57.3078 10.9455L39.7028 2.61664C36.9406 11.4246 33.8837 17.8371 25.7073 27.4559L37.2352 33.2787L36.7564 34.2738Z" fill="#1C1B2F"/>
</svg>
